<?xml version="1.0" encoding="UTF-8" standalone="no"?>
<svg
   xmlns:dc="http://purl.org/dc/elements/1.1/"
   xmlns:cc="http://creativecommons.org/ns#"
   xmlns:rdf="http://www.w3.org/1999/02/22-rdf-syntax-ns#"
   xmlns:svg="http://www.w3.org/2000/svg"
   xmlns="http://www.w3.org/2000/svg"
   xmlns:sodipodi="http://sodipodi.sourceforge.net/DTD/sodipodi-0.dtd"
   xmlns:inkscape="http://www.inkscape.org/namespaces/inkscape"
   viewBox="0 0 36 36"
   version="1.1"
   id="svg3865"
   sodipodi:docname="fox.svg"
   inkscape:version="0.92.4 (5da689c313, 2019-01-14)">
  <metadata
     id="metadata3871">
    <rdf:RDF>
      <cc:Work
         rdf:about="">
        <dc:format>image/svg+xml</dc:format>
        <dc:type
           rdf:resource="http://purl.org/dc/dcmitype/StillImage" />
      </cc:Work>
    </rdf:RDF>
  </metadata>
  <defs
     id="defs3869" />
  <sodipodi:namedview
     pagecolor="#ffffff"
     bordercolor="#666666"
     borderopacity="1"
     objecttolerance="10"
     gridtolerance="10"
     guidetolerance="10"
     inkscape:pageopacity="0"
     inkscape:pageshadow="2"
     inkscape:window-width="1920"
     inkscape:window-height="1137"
     id="namedview3867"
     showgrid="true"
     inkscape:zoom="37.083822"
     inkscape:cx="16.222654"
     inkscape:cy="11.518993"
     inkscape:window-x="-8"
     inkscape:window-y="-8"
     inkscape:window-maximized="1"
     inkscape:current-layer="svg3865">
    <inkscape:grid
       type="xygrid"
       id="grid3873" />
  </sodipodi:namedview>
  <path
     fill="#F4900C"
     d="M13.431 9.802c.658 2.639.176 4.879-2.462 5.536-2.64.657-6.211 4.954-8.782-1.438C.696 10.197-.606 2.434.874 2.065c1.48-.368 11.9 5.098 12.557 7.737z"
     id="path3845" />
  <path
     fill="#A0041E"
     d="M11.437 10.355c.96 1.538-1.831 4.561-3.368 5.522-1.538.961-2.899-.552-4.414-4.414-.662-1.689-1.666-6.27-1.103-6.622.562-.351 7.924 3.976 8.885 5.514z"
     id="path3847" />
  <path
     fill="#F4900C"
     d="M22.557 9.802c-.657 2.639-.177 4.879 2.463 5.536s6.21 4.954 8.782-1.438c1.49-3.703 2.792-11.466 1.312-11.835-1.48-.368-11.899 5.098-12.557 7.737z"
     id="path3849" />
  <path
     fill="#A0041E"
     d="M24.552 10.355c-.96 1.538 1.831 4.561 3.368 5.522 1.537.961 2.898-.552 4.413-4.414.662-1.688 1.666-6.269 1.104-6.621-.563-.352-7.924 3.975-8.885 5.513z"
     id="path3851" />
  <path
     fill="#F4900C"
     d="M18.001 9.255C11.379 7.048 6.53 11.229 2.552 19.188h2.207s-2.207 2.206-3.311 5.517c2.207-1.104 3.311-1.104 3.311-1.104s-1.104 2.208-1.104 3.312c3.311-2.208 6.621-2.208 8.828 1.103s5.518 0 5.518-4.414V9.255z"
     id="path3853" />
  <path
     fill="#F4900C"
     d="M18.001 9.255c6.621-2.207 11.471 1.974 15.448 9.932h-2.206s2.206 2.206 3.309 5.517C32.346 23.6 31.243 23.6 31.243 23.6s1.103 2.208 1.103 3.312c-3.311-2.208-6.621-2.208-8.828 1.103-2.208 3.311-5.518 0-5.518-4.414l.001-14.346z"
     id="path3855" />
  <path
     fill="#F4900C"
     d="M18.001 8.29h-.003c-11.334.001-9.605 4.369-8.39 11.632 1.214 7.266 2.65 12.421 8.393 12.421 5.741 0 7.175-5.155 8.391-12.421 1.213-7.264 2.941-11.631-8.391-11.632z"
     id="path3857" />
  <path
     fill="#F18F26"
     d="M34.709 26.042c-.084-5.708-9.301-3.745-10.087-2.972-1.104 1.084-1.108 7.705-6.623 7.705-5.516 0-6.62-6.621-7.723-7.705-.787-.773-9.234-1.403-9.026 2.972 2.207-1.104 3.508-.784 3.508-.784s-1.425.826-1.216 2.784c3.208-1.458 4.708-1.25 6.458-.375C11.213 31.29 14.206 34 18.001 34c3.793 0 6.746-2.794 7.958-6.416 1.458-1.25 3.708-.875 6.416.416.292-1.833-1.132-2.742-1.132-2.742s1.26-.32 3.466.784z"
     id="path3859" />
  <path
     d="m 34.553,24.704 c -0.904,-2.718 -9.145,-4.064 -9.931,-3.291 -1.104,1.084 -1.108,7.705 -6.623,7.705 -5.516,0 -5.62,-6.621 -6.723,-7.705 C 10.489,20.64 2.354,21.986 1.448,24.704 3.655,23.6 4.759,23.6 4.759,23.6 c 0,0 -1.104,2.208 -1.104,3.312 2.67,-1.78 5.339,-2.122 7.429,-0.452 1.213,3.623 3.122,5.883 6.917,5.883 3.793,0 5.7,-2.259 6.912,-5.881 2.092,-1.673 4.763,-1.33 7.434,0.45 0,-1.104 -1.103,-3.312 -1.103,-3.312 0,0 1.103,10e-4 3.309,1.104 z"
     id="path3861"
     inkscape:connector-curvature="0"
     style="fill:#ffd983"
     sodipodi:nodetypes="ccscccccscccc" />
  <path
     fill="#272B2B"
     d="M11 17s0-1.5 1.5-1.5S14 17 14 17v1.5s0 1.5-1.5 1.5-1.5-1.5-1.5-1.5V17zm11 0s0-1.5 1.5-1.5S25 17 25 17v1.5s0 1.5-1.5 1.5-1.5-1.5-1.5-1.5V17zm-7.061 10.808c-1.021.208 2.041 3.968 3.062 3.968 1.02 0 4.082-3.76 3.062-3.968-1.021-.208-5.103-.208-6.124 0z"
     id="path3863" />
</svg>
